<svg width="194" height="218" viewBox="0 0 194 218" fill="none" xmlns="http://www.w3.org/2000/svg">
<g clip-path="url(#clip0_413_246)">
<rect width="193.35" height="218" rx="10" fill="white"/>
<mask id="path-2-outside-1_413_246" maskUnits="userSpaceOnUse" x="-18" y="-10" width="87" height="132" fill="black">
<rect fill="white" x="-18" y="-10" width="87" height="132"/>
<path d="M67.9859 121V-8.60001H-16.6141V14.26H43.5059V41.98H-5.81407V64.84H43.5059V98.14H-16.6141V121H67.9859Z"/>
</mask>
<path d="M67.9859 121V-8.60001H-16.6141V14.26H43.5059V41.98H-5.81407V64.84H43.5059V98.14H-16.6141V121H67.9859Z" fill="#E6E6E6"/>
<path d="M67.9859 121H68.9859V122H67.9859V121ZM67.9859 -8.60001V-9.60001H68.9859V-8.60001H67.9859ZM-16.6141 -8.60001H-17.6141V-9.60001H-16.6141V-8.60001ZM-16.6141 14.26V15.26H-17.6141V14.26H-16.6141ZM43.5059 14.26V13.26H44.5059V14.26H43.5059ZM43.5059 41.98H44.5059V42.98H43.5059V41.98ZM-5.81407 41.98H-6.81407V40.98H-5.81407V41.98ZM-5.81407 64.84V65.84H-6.81407V64.84H-5.81407ZM43.5059 64.84V63.84H44.5059V64.84H43.5059ZM43.5059 98.14H44.5059V99.14H43.5059V98.14ZM-16.6141 98.14H-17.6141V97.14H-16.6141V98.14ZM-16.6141 121V122H-17.6141V121H-16.6141ZM66.9859 121V-8.60001H68.9859V121H66.9859ZM67.9859 -7.60001H-16.6141V-9.60001H67.9859V-7.60001ZM-15.6141 -8.60001V14.26H-17.6141V-8.60001H-15.6141ZM-16.6141 13.26H43.5059V15.26H-16.6141V13.26ZM44.5059 14.26V41.98H42.5059V14.26H44.5059ZM43.5059 42.98H-5.81407V40.98H43.5059V42.98ZM-4.81407 41.98V64.84H-6.81407V41.98H-4.81407ZM-5.81407 63.84H43.5059V65.84H-5.81407V63.84ZM44.5059 64.84V98.14H42.5059V64.84H44.5059ZM43.5059 99.14H-16.6141V97.14H43.5059V99.14ZM-15.6141 98.14V121H-17.6141V98.14H-15.6141ZM-16.6141 120H67.9859V122H-16.6141V120Z" fill="#E6E6E6" mask="url(#path-2-outside-1_413_246)"/>
<mask id="path-4-outside-2_413_246" maskUnits="userSpaceOnUse" x="125" y="95" width="87" height="132" fill="black">
<rect fill="white" x="125" y="95" width="87" height="132"/>
<path d="M126.014 226V96.4H210.614V119.26H150.494V146.98H199.814V169.84H150.494V203.14H210.614V226H126.014Z"/>
</mask>
<path d="M126.014 226V96.4H210.614V119.26H150.494V146.98H199.814V169.84H150.494V203.14H210.614V226H126.014Z" fill="#E6E6E6"/>
<path d="M126.014 226H125.014V227H126.014V226ZM126.014 96.4V95.4H125.014V96.4H126.014ZM210.614 96.4H211.614V95.4H210.614V96.4ZM210.614 119.26V120.26H211.614V119.26H210.614ZM150.494 119.26V118.26H149.494V119.26H150.494ZM150.494 146.98H149.494V147.98H150.494V146.98ZM199.814 146.98H200.814V145.98H199.814V146.98ZM199.814 169.84V170.84H200.814V169.84H199.814ZM150.494 169.84V168.84H149.494V169.84H150.494ZM150.494 203.14H149.494V204.14H150.494V203.14ZM210.614 203.14H211.614V202.14H210.614V203.14ZM210.614 226V227H211.614V226H210.614ZM127.014 226V96.4H125.014V226H127.014ZM126.014 97.4H210.614V95.4H126.014V97.4ZM209.614 96.4V119.26H211.614V96.4H209.614ZM210.614 118.26H150.494V120.26H210.614V118.26ZM149.494 119.26V146.98H151.494V119.26H149.494ZM150.494 147.98H199.814V145.98H150.494V147.98ZM198.814 146.98V169.84H200.814V146.98H198.814ZM199.814 168.84H150.494V170.84H199.814V168.84ZM149.494 169.84V203.14H151.494V169.84H149.494ZM150.494 204.14H210.614V202.14H150.494V204.14ZM209.614 203.14V226H211.614V203.14H209.614ZM210.614 225H126.014V227H210.614V225Z" fill="#E6E6E6" mask="url(#path-4-outside-2_413_246)"/>
</g>
<defs>
<clipPath id="clip0_413_246">
<rect width="193.35" height="218" rx="10" fill="white"/>
</clipPath>
</defs>
</svg>
