<svg width="411" height="560" viewBox="0 0 411 560" fill="none" xmlns="http://www.w3.org/2000/svg">
<g clip-path="url(#clip0_413_241)">
<rect width="411" height="560" rx="10" fill="#1E1E1E"/>
<mask id="path-2-outside-1_413_241" maskUnits="userSpaceOnUse" x="-36" y="-11" width="168" height="254" fill="black">
<rect fill="white" x="-36" y="-11" width="168" height="254"/>
<path d="M130.223 242V-10H-34.2774V34.45H82.6227V88.35H-13.2774V132.8H82.6227V197.55H-34.2774V242H130.223Z"/>
</mask>
<path d="M130.223 242V-10H-34.2774V34.45H82.6227V88.35H-13.2774V132.8H82.6227V197.55H-34.2774V242H130.223Z" fill="#252525"/>
<path d="M130.223 242H131.223V243H130.223V242ZM130.223 -10V-11H131.223V-10H130.223ZM-34.2774 -10H-35.2774V-11H-34.2774V-10ZM-34.2774 34.45V35.45H-35.2774V34.45H-34.2774ZM82.6227 34.45V33.45H83.6227V34.45H82.6227ZM82.6227 88.35H83.6227V89.35H82.6227V88.35ZM-13.2774 88.35H-14.2774V87.35H-13.2774V88.35ZM-13.2774 132.8V133.8H-14.2774V132.8H-13.2774ZM82.6227 132.8V131.8H83.6227V132.8H82.6227ZM82.6227 197.55H83.6227V198.55H82.6227V197.55ZM-34.2774 197.55H-35.2774V196.55H-34.2774V197.55ZM-34.2774 242V243H-35.2774V242H-34.2774ZM129.223 242V-10H131.223V242H129.223ZM130.223 -9.00001H-34.2774V-11H130.223V-9.00001ZM-33.2774 -10V34.45H-35.2774V-10H-33.2774ZM-34.2774 33.45H82.6227V35.45H-34.2774V33.45ZM83.6227 34.45V88.35H81.6227V34.45H83.6227ZM82.6227 89.35H-13.2774V87.35H82.6227V89.35ZM-12.2774 88.35V132.8H-14.2774V88.35H-12.2774ZM-13.2774 131.8H82.6227V133.8H-13.2774V131.8ZM83.6227 132.8V197.55H81.6227V132.8H83.6227ZM82.6227 198.55H-34.2774V196.55H82.6227V198.55ZM-33.2774 197.55V242H-35.2774V197.55H-33.2774ZM-34.2774 241H130.223V243H-34.2774V241Z" fill="#252525" mask="url(#path-2-outside-1_413_241)"/>
<mask id="path-4-outside-2_413_241" maskUnits="userSpaceOnUse" x="271" y="330" width="168" height="254" fill="black">
<rect fill="white" x="271" y="330" width="168" height="254"/>
<path d="M272.777 583V331H437.277V375.45H320.377V429.35H416.277V473.8H320.377V538.55H437.277V583H272.777Z"/>
</mask>
<path d="M272.777 583V331H437.277V375.45H320.377V429.35H416.277V473.8H320.377V538.55H437.277V583H272.777Z" fill="#252525"/>
<path d="M272.777 583H271.777V584H272.777V583ZM272.777 331V330H271.777V331H272.777ZM437.277 331H438.277V330H437.277V331ZM437.277 375.45V376.45H438.277V375.45H437.277ZM320.377 375.45V374.45H319.377V375.45H320.377ZM320.377 429.35H319.377V430.35H320.377V429.35ZM416.277 429.35H417.277V428.35H416.277V429.35ZM416.277 473.8V474.8H417.277V473.8H416.277ZM320.377 473.8V472.8H319.377V473.8H320.377ZM320.377 538.55H319.377V539.55H320.377V538.55ZM437.277 538.55H438.277V537.55H437.277V538.55ZM437.277 583V584H438.277V583H437.277ZM273.777 583V331H271.777V583H273.777ZM272.777 332H437.277V330H272.777V332ZM436.277 331V375.45H438.277V331H436.277ZM437.277 374.45H320.377V376.45H437.277V374.45ZM319.377 375.45V429.35H321.377V375.45H319.377ZM320.377 430.35H416.277V428.35H320.377V430.35ZM415.277 429.35V473.8H417.277V429.35H415.277ZM416.277 472.8H320.377V474.8H416.277V472.8ZM319.377 473.8V538.55H321.377V473.8H319.377ZM320.377 539.55H437.277V537.55H320.377V539.55ZM436.277 538.55V583H438.277V538.55H436.277ZM437.277 582H272.777V584H437.277V582Z" fill="#252525" mask="url(#path-4-outside-2_413_241)"/>
</g>
<defs>
<clipPath id="clip0_413_241">
<rect width="411" height="560" rx="10" fill="white"/>
</clipPath>
</defs>
</svg>
